<?xml version="1.0" encoding="UTF-8"?>
<svg id="Capa_2" data-name="Capa 2" xmlns="http://www.w3.org/2000/svg" viewBox="0 0 601 510.37">
  <defs>
    <style>
      .cls-1 {
        fill: #373636;
      }

      .cls-2 {
        fill: #edc249;
      }
    </style>
  </defs>
  <g id="iso">
    <g>
      <path class="cls-2" d="m346.84,477.46c54,0,103.39-19.59,141.47-52.04-44.48,45.04-106.24,72.93-174.53,72.93-96.57,0-180.13-55.83-220.15-136.97h0c-.63-1.3-1.26-2.59-1.87-3.89l.16.07.27.12s0,.01,0,.01c1.99.91,4.02,1.8,6.07,2.67l-7.58-7.56-.08-.08-1.79-1.79c-.2-.46-.4-.92-.6-1.39-.5-1.15-.98-2.31-1.46-3.47-11.81-28.68-18.3-60.11-18.3-93.05,0-10.19.63-20.23,1.84-30.08,14.33-10.44,32.91-19.25,54.78-26.14,4.44-1.4,9-2.73,13.69-3.94-6.65,20.89-10.25,43.16-10.25,66.26,0,108.56,79.25,198.63,183.05,215.5,11.48,1.87,23.27,2.84,35.28,2.84Z"/>
      <path class="cls-2" d="m177.11,120.3c.48-.1.96-.2,1.46-.31-12.43,15.02-22.87,31.72-30.95,49.72-.59,1.3-1.16,2.61-1.72,3.92-2.15,5.02-4.12,10.15-5.88,15.38-.45.11-.91.23-1.36.35-4.69,1.21-9.25,2.54-13.69,3.94-21.56,6.79-39.93,15.45-54.17,25.71.88-6.47,2.04-12.87,3.44-19.17.3-1.36.61-2.71.93-4.06,3.56-14.97,8.51-29.39,14.68-43.12.73-.42,1.5-.86,2.25-1.27,24.1-13.46,52.97-24.13,85.01-31.09Z"/>
      <path class="cls-2" d="m538.61,154.66c-29.96-54.9-82.82-95.51-145.74-109-14.84-3.19-30.24-4.87-46.03-4.87-51.6,0-99.04,17.92-136.41,47.88-1.74,1.39-3.46,2.81-5.16,4.26-8.24,7-15.95,14.62-23.06,22.79-1.39.28-2.78.56-4.16.86-.5.11-.98.21-1.45.32-31.78,6.9-60.45,17.45-84.43,30.75,4.2-8.86,8.93-17.39,14.16-25.62,1.1-1.73,2.22-3.45,3.36-5.16,10.84-16.24,23.57-31.1,37.88-44.29.04-.03.08-.07.13-.11C191.38,32.24,249.72,7.67,313.78,7.67c67.91,0,129.36,27.58,173.78,72.16,1.01,1.01,2.01,2.03,3,3.06.24.25.48.5.71.75,3.67,3.84,7.2,7.78,10.61,11.85h.01c14.89,17.77,27.3,37.66,36.72,59.17Z"/>
      <path class="cls-1" d="m292.98,21.49c-56.14-.41-107.63,19.55-147.46,52.98.7-.69,1.39-1.38,2.1-2.08.04-.03.08-.07.13-.11C194.14,27.1,257.65-.48,327.49,0c74.03.58,140.44,32.64,186.64,83.35.02.02.03.03.05.05l-16.89-2.07-3.95-.49s-.02,0-.03,0l-.28-.04h-.02l-.34-.04c.22.04.44.08.65.13.55.11,1.09.24,1.65.38.04-.03.04,0,.07,0,.3.14.59.29.86.44.01,0,.02,0,.02,0,.13.07.25.13.37.19l.13,1.25.2,1.93v.08h.05c13.11,6.46,24.81,13.48,34.89,20.97.73.54,1.44,1.08,2.15,1.63.03.02.05.04.08.06.64.9,1.27,1.8,1.9,2.71,8.13,11.76,15.28,24.24,21.31,37.32h0c.05.1.09.19.13.28-2.2-1.05-4.43-2.07-6.7-3.05l9.7,9.84.05.05c2.66,6.2,6.23,16.64,8.58,23.73,1.8,5.44,1.49,11.35-.87,16.57-8.29,18.38-25.55,35.07-49.63,49.16-.04.02-.08.05-.12.07v-.04c-1.44-87-51.96-162.26-125.22-199.02-30.09-15.1-64.01-23.71-99.94-23.98Z"/>
      <path class="cls-1" d="m531.31,106.07h0c-10.01-7.41-21.61-14.34-34.58-20.74h-.03l-.21-2.05-.13-1.2c-.41-.2-.81-.44-1.25-.64-.04,0-.04-.04-.07,0-.59-.16-1.17-.3-1.75-.4t-.02,0h-.01c-.18-.05-.35-.08-.53-.11l4.5.55,16.85,2.07.16.02c1.39,1.52,2.75,3.05,4.1,4.57.41.52.83,1.01,1.27,1.5.11.12.22.25.33.37.77.94,1.59,1.93,2.37,2.88.71.84,1.42,1.69,2.1,2.57l.03.03c.38.49.76.97,1.15,1.45.21.28.43.55.64.82h.01s0,.01,0,.01c.04.05.08.11.12.16.33.39.64.79.95,1.19.03.04.06.07.09.11.05.07.11.13.17.21.04.07.1.14.15.21h.01c.45.6.91,1.2,1.38,1.81,1.62,2.16,3.21,4.33,4.74,6.53-.84-.65-1.69-1.29-2.55-1.92Z"/>
      <path class="cls-1" d="m496.69,85.33c-3.08-1.02-6.23-1.96-9.42-2.85-.85-1.12-1.73-2.17-2.61-3.22,2.71.51,5.42,1.05,8.06,1.66,1.22.34,2.44.75,3.62,1.15l.34,3.25Z"/>
      <polygon class="cls-1" points="557.2 148.29 560.23 155.13 554.41 155.25 547.76 144.99 551.08 143.03 557.2 148.29"/>
      <path class="cls-2" d="m99.85,361.89l-7.08-3.1h-.01s-.32-.15-.32-.15l-.19-.08-.46-1-1.65-3.66h-.01s-.76-1.7-.76-1.7l-.57-1.27,2.09,2.07h0s.09.1.09.1c0,0,.01,0,.01.01h.01l8.83,8.78Z"/>
      <path class="cls-1" d="m580.46,257.25c-.1,10.6-.81,21-2.13,31.23-1.05,8.13-2.51,16.13-4.3,23.99-3.86,17.03-9.49,33.4-16.6,48.91-5.01,11.04-10.81,21.61-17.34,31.71-45.7,71.1-125.75,117.95-216.5,117.27-102.21-.76-189.93-61.57-229.96-148.69-.03-.04-.05-.08-.06-.13-.59-1.26-1.16-2.53-1.71-3.81-.28-.62-.55-1.24-.82-1.87.36.67.72,1.33,1.09,1.99,0,0,0,.01.01.01h0c38.29,69.71,112.17,117.18,197.34,117.82,7.42.05,14.77-.25,22.01-.89h0c47.55-4.24,90.94-23.16,125.54-52.23,10.09-8.44,19.44-17.79,27.94-27.91,13.99-16.64,25.61-35.3,34.35-55.49,1.33-2.99,2.56-5.99,3.72-9.04h0c.1-.25.19-.48.28-.72.74-1.91,1.44-3.81,2.08-5.72h0s.01-.05.02-.07c.54-1.46,1.02-2.91,1.49-4.37,2.22-6.75,4.1-13.63,5.65-20.63.21-.16.42-.32.63-.48,8.57-6.62,16.5-13.5,23.72-20.62.57-.61,1.18-1.22,1.76-1.79,14.61-14.75,26.05-30.44,33.71-46.37.03-.03.03-.06.03-.06.36-.74.71-1.47,1.05-2.21-.55.67-1.11,1.33-1.68,1.99,0,0,0,.04-.04.07-2.02,2.34-4.21,4.69-6.51,6.99h-.01c-.06.12-.13.24-.2.35-7.21,12.1-16.56,23.92-27.74,35.23l-1.76,1.76c-6.58,6.51-13.79,12.88-21.58,18.97-.04.03-.09.07-.13.1,0-.02.01-.04.01-.06,1.49-7.49,2.61-15.08,3.29-22.8v-.03c.13-1.21.24-2.39.3-3.6v-.03c.41-5.15.61-10.33.65-15.58v-2.01c28.43-16.55,47.34-36.71,53.21-59,.1-.36.37-.75.41-.57,2.03,7.41,3.69,14.93,4.98,22.62.01.07.03.13.04.2.29,1.46.51,2.92.77,4.41.04.3.08.59.12.88.04.29.09.57.12.85.01.04.01.07.02.11.15.96.28,1.95.4,2.91.01.05.01.11.02.16v.04c1.19,8.57,1.9,17.27,2.17,26.08v.15c.07,1.71.1,3.42.1,5.13,0,.27,0,.53,0,.8h0c.02,1.36.02,2.69.02,4.05Z"/>
      <path class="cls-2" d="m496.36,82.08c-1.19-.41-2.4-.81-3.62-1.15.78.14,1.52.3,2.3.51.03-.03.03,0,.07,0,.44.2.85.44,1.25.64Z"/>
      <path class="cls-2" d="m396.94,154.09c-11.74,0-22.2,5.47-28.97,13.99-.79.98-1.52,2.01-2.2,3.07-3.03,4.73-5.01,10.2-5.62,16.08-.12,1.13-.19,2.29-.2,3.45v.41c0,20.43,16.56,37.01,36.99,37.01s37-16.58,37-37.01-16.56-37-37-37Zm0,53.6c-9.33,0-16.89-7.58-16.89-16.89s7.56-16.9,16.89-16.9,16.9,7.56,16.9,16.9-7.56,16.89-16.9,16.89Z"/>
      <path class="cls-2" d="m386.01,171.74c-2.42.31-4.67,1.02-6.63,2.05-4.03,2.12-6.81,5.62-7.25,9.8-.12,1.1-.07,2.2.14,3.27.21,1.09.59,2.16,1.11,3.17-.37-.08-.73-.16-1.1-.24-4.01-.9-8.05-1.75-12.13-2.56-2.94-.58-5.9-1.14-8.89-1.68-13.64-2.46-27.73-4.48-42.16-6.02-32.35-3.42-63.62-4.04-92.7-2.19-27.78,1.76-53.55,5.73-76.38,11.67-.45.11-.91.23-1.36.35-4.69,1.21-9.25,2.54-13.69,3.94-21.56,6.79-39.93,15.45-54.17,25.71-.21.14-.41.28-.61.43-18.82,13.66-30.29,30.08-32.23,48.51-.31,2.97-.37,5.93-.19,8.9,1.49,24.3,19.37,48.27,48.98,69.22.64.45,1.29.91,1.95,1.36l2.57,5.7c-.2-.11-.38-.22-.57-.32h-.01s0-.01,0-.01c-.02-.01-.03-.02-.05-.03h0l-1.32-.75c-18.47-10.51-33.8-22.12-45.22-34.45-.01-.01-.02-.02-.03-.03-7.27-7.84-12.97-15.97-16.87-24.31-.02-.02-.03-.05-.04-.07-.02-.04-.04-.08-.06-.12-.03-.06-.06-.12-.09-.18-.01,0-.01-.02-.02-.03-1.75-3.76-3.13-7.56-4.13-11.38-.01-.01-.01-.03-.01-.05-.88-3.34-1.47-6.7-1.75-10.08-.05-.51-.08-1.01-.11-1.52-.11-1.91-.13-3.81-.05-5.72,1.12-26.5,20.75-49.79,53.22-67.74.34-.19.68-.38,1.03-.56,18.69-10.19,41.57-18.64,67.55-24.92,1.02-.25,2.04-.5,3.08-.73.61-.14,1.21-.28,1.82-.42,28.72-6.58,61.05-10.58,95.63-11.47,17.94-.46,36.52-.11,55.5,1.16,20.58,1.4,40.62,3.75,59.82,7,3.16.54,6.29,1.09,9.4,1.68,6.11,1.13,12.13,2.35,18.04,3.66Z"/>
      <path class="cls-2" d="m377.68,96.57c-3.73-16.46-18.46-28.75-36.06-28.75-12.89,0-24.94,7.21-31.46,17.56-.18.27-.37.56-.54.85-.31.53-.78,1.33-1.32,2.38-1.67,3.32-3.95,9.1-3.68,16.21.07,1.54.23,3.12.55,4.74.21,1.14.47,2.29.8,3.44,3.99,14.24,16.7,28.81,35.65,28.81,14.12,0,26.39-7.89,32.62-19.54,2.79-5.21,4.38-11.14,4.38-17.45,0-2.84-.32-5.61-.94-8.25Zm-24.67,20.39c-3,2.75-6.99,4.44-11.39,4.44-6.58,0-12.29-3.77-15.06-9.25-.25-.5-.48-1.01-.68-1.53-.07-.15-.12-.3-.17-.45-.1-.27-.19-.54-.27-.81-.06-.21-.12-.42-.18-.64v-.03s-.02-.04-.01-.06c-.04-.15-.08-.31-.11-.46-.05-.17-.08-.34-.11-.51-.03-.11-.05-.22-.06-.33-.02-.12-.04-.23-.05-.35-.03-.2-.06-.4-.08-.6-.03-.19-.05-.38-.05-.57-.02-.14-.03-.28-.03-.43-.02-.29-.03-.58-.03-.88,0-.32.01-.64.03-.96.04-.81.15-1.61.31-2.39.05-.26.11-.52.17-.78.07-.28.15-.56.24-.84.02-.08.04-.15.07-.23.02-.08.05-.16.08-.24.05-.16.1-.31.16-.46.1-.27.21-.53.32-.79.11-.24.22-.49.34-.73.06-.13.13-.27.2-.4.14-.27.29-.53.44-.78.15-.26.3-.5.47-.74.18-.28.38-.56.58-.82.18-.25.37-.49.58-.72.21-.25.42-.49.64-.72.22-.23.45-.46.68-.68.23-.22.47-.43.72-.64.03-.03.06-.05.09-.08.21-.17.42-.34.64-.5,0-.01,0-.02.02-.02.14-.1.28-.2.42-.3.15-.11.3-.21.45-.3.52-.35,1.05-.65,1.6-.93.21-.11.42-.21.64-.31.22-.1.45-.2.68-.29.15-.07.31-.13.47-.18.3-.11.6-.22.91-.31,1.57-.5,3.21-.75,4.94-.75,3.67,0,7.08,1.17,9.83,3.17,4.27,3.06,7.06,8.06,7.06,13.72,0,4.94-2.12,9.38-5.5,12.46Z"/>
      <path class="cls-2" d="m336.68,88.36c-.31.09-.61.2-.91.31-.16.05-.32.11-.47.18-.23.09-.46.19-.68.29-.22.1-.43.2-.64.31-.55.28-1.08.58-1.6.93-.15.09-.3.19-.45.3-.14.1-.28.2-.42.3-.01,0-.01.01-.02.02-.22.16-.43.33-.64.5-.03.03-.06.05-.09.08-.25.2-.49.41-.72.64-.24.22-.47.45-.68.68-.23.24-.44.47-.64.72-.21.23-.4.47-.58.72-.2.26-.4.54-.58.82-.17.24-.32.48-.47.74-.15.25-.3.51-.44.78-.07.13-.14.27-.2.4-.12.24-.23.49-.34.73-.11.26-.22.52-.32.79-.06.15-.11.3-.16.46-.03.08-.06.16-.08.24-.03.08-.05.15-.07.23-.09.28-.17.56-.24.84-.06.26-.12.52-.17.78-.16.78-.27,1.58-.31,2.39-.02.32-.03.64-.03.96,0,.3.01.59.03.88,0,.15.01.29.03.43,0,.19.02.38.05.57.02.2.04.4.08.6.01.12.03.23.05.35.01.11.03.22.06.33.03.17.06.34.11.51.02.15.06.31.11.46,0,.02,0,.04.01.06.05.22.11.45.18.67.08.27.17.54.27.81.05.15.1.3.17.45.2.52.43,1.03.68,1.53-.27-.04-.53-.08-.8-.11-6.76-1-13.62-1.84-20.59-2.48-13.19-1.25-26.73-1.89-40.54-1.89-28.9,0-56.65,2.83-82.42,8.05-1.39.28-2.78.56-4.16.86-.5.11-.98.21-1.45.32-31.78,6.9-60.45,17.45-84.43,30.75h0c-.2.11-.39.22-.59.33-.75.41-1.52.85-2.25,1.27-44.93,25.7-72.7,61.22-72.7,100.47,0,4.84.42,9.63,1.25,14.35.01.07.02.13.03.19.83,4.64,2.04,9.22,3.63,13.72h0c.4,1.15.83,2.29,1.29,3.42,0,.02,0,.04.01.05,9.56,24,29.74,45.69,57.56,63.35.01.01.03.02.05.04,2.52,1.6,5.11,3.16,7.76,4.7.42.24.84.49,1.27.73.36.83.74,1.63,1.12,2.44h0s.02.05.02.06h0c.2.44.41.88.62,1.31l-1.29-.6h-.01c-.58-.27-1.15-.54-1.72-.81-6.99-3.32-13.65-6.87-19.95-10.63C31.47,320.09,7.05,290.99,1.31,257.96c-.62-3.54-1.02-7.13-1.2-10.76-2.52-51,39.48-98.2,105.7-128.57.13-.07.23-.11.36-.17,1.17-.53,2.34-1.06,3.52-1.59,26.77-11.86,57.35-21.01,90.42-26.59,1.55-.28,3.09-.53,4.65-.75,1.88-.3,3.77-.58,5.67-.86,13.75-2,27.9-3.39,42.37-4.1,19.64-.96,38.85-.65,57.36.81,9.02.73,17.88,1.71,26.52,2.98Z"/>
      <path class="cls-1" d="m330.6,369.08c-.58-1.27-1.23-2.49-1.94-3.67-6.48-10.72-18.25-17.88-31.69-17.88-20.43,0-36.99,16.56-36.99,36.99s16.56,37,36.99,37c17.31,0,31.84-11.88,35.89-27.94.32-1.3.58-2.63.76-3.99.23-1.66.35-3.35.35-5.07,0-5.52-1.21-10.74-3.37-15.44Zm-33.63,32.03c-9.33,0-16.89-7.57-16.89-16.9s7.56-16.89,16.89-16.89,16.9,7.56,16.9,16.89-7.57,16.9-16.9,16.9Z"/>
      <path class="cls-1" d="m496.36,82.08c-1.19-.41-2.4-.81-3.62-1.15.78.14,1.52.3,2.3.51.03-.03.03,0,.07,0,.44.2.85.44,1.25.64Z"/>
      <path class="cls-1" d="m580.68,252.74c-.06.1-.12.19-.18.29h0c-11.87,19.45-28.61,38.4-49.32,55.83-.1.07-.17.13-.27.24-8.37,7.05-17.42,13.83-27.04,20.34-.25.17-.5.34-.76.5h0c-15.93,10.68-33.45,20.53-52.32,29.2-1.35.64-2.73,1.25-4.12,1.86-13.8,6.17-28.28,11.74-43.36,16.57-17.99,5.74-35.91,10.19-53.49,13.33-5.69,1.03-11.35,1.93-16.96,2.68-2.82.38-5.63.73-8.42,1.03,1.76-1.11,3.28-2.56,4.49-4.22v-.03s.08-.11.11-.16c2.72-3.86,3.75-8.96,2.42-13.95-.23-.88-.54-1.75-.91-2.56-.54-1.29-1.27-2.49-2.12-3.56-.2-.25-.4-.49-.61-.73.08-.01.17-.01.25-.03.31-.03.61-.08.93-.1.53-.06,1.06-.12,1.6-.19,5.88-.67,11.8-1.49,17.77-2.48,12.55-2.06,25.28-4.79,38.1-8.17,28.28-7.52,54.6-17.71,78.16-29.83.44-.24.84-.44,1.25-.67,17.15-8.88,32.8-18.8,46.75-29.49.21-.16.42-.32.63-.48,8.57-6.62,16.5-13.5,23.72-20.62.57-.61,1.18-1.22,1.76-1.79,14.61-14.75,26.05-30.44,33.71-46.37.03-.03.03-.06.03-.06.36-.74.71-1.47,1.05-2.21.94-2.03,1.81-4.07,2.63-6.13.21-.54.42-1.08.63-1.63.3-.78.59-1.56.87-2.35.03-.08.06-.16.09-.24,6.48-18.39,7.79-36.99,3.07-54.84-.28-1.09-.59-2.18-.94-3.27-.3-.99-.63-1.97-.99-2.94-2.63-7.54-6.31-14.63-10.95-21.23-7.71-11-18.04-20.66-30.52-28.82-3.1-2.03-6.33-3.97-9.68-5.81h-.01c-.35-.2-.68-.38-1.03-.57-.02-.01-.03-.02-.05-.03-.49-.62-.97-1.23-1.46-1.85h0s-.04-.07-.07-.1l-1.45-1.8c-.35-.43-.7-.85-1.06-1.27-.77-.95-1.58-1.93-2.36-2.87-.54-.61-1.08-1.22-1.58-1.86.09.03.16.06.25.09h.01c.23.08.46.17.69.25.58.21,1.16.42,1.74.64,36.95,13.63,63.95,36.58,74.65,67.49.27.75.54,1.52.78,2.3.21.68.42,1.35.62,2.03,8.42,28.91,1.75,60.37-16.72,90.64Z"/>
      <path class="cls-1" d="m278.14,293.66s-.01-.06-.01-.09c-.06-.59-.17-1.19-.29-1.77-.1-.51-.21-1.02-.33-1.53-3.86-16.27-18.5-28.39-35.98-28.39-20.44,0-37,16.56-37,37s16.56,37,37,37c14.83,0,27.62-8.71,33.5-21.31.22-.48.43-.98.64-1.48.25-.58.48-1.17.69-1.76,1.41-3.89,2.16-8.08,2.16-12.45,0-1.76-.12-3.52-.38-5.22Zm-47.42,17.89c-2.07-1.71-3.71-3.92-4.77-6.44-.86-2.02-1.32-4.23-1.32-6.54s.5-4.67,1.4-6.73c.44-1,.96-1.96,1.56-2.83,3.06-4.44,8.17-7.34,13.94-7.34s10.68,2.79,13.75,7.09c.77,1.06,1.39,2.2,1.91,3.45.01.03.03.07.04.1.31.78.56,1.58.75,2.41.01.02.01.04.01.06.18.74.29,1.49.35,2.26.02.23.04.46.05.69.02.28.03.56.03.84,0,.31-.01.62-.03.92-.01.22-.03.43-.05.65-.01.21-.04.41-.07.62-.03.29-.08.59-.14.88-.03.2-.07.4-.12.6-.05.23-.11.46-.17.69-.02.11-.05.23-.09.34-.03.12-.06.23-.1.34-.08.27-.17.53-.27.79-.09.26-.19.52-.3.77-.02.05-.04.1-.07.15-.1.24-.21.48-.33.71-.11.23-.23.46-.36.68-.1.19-.21.38-.32.56-.24.41-.5.8-.78,1.18-.14.21-.3.42-.47.62-.31.41-.65.79-1.01,1.16-.06.07-.12.14-.19.2-.05.06-.1.11-.15.16-.26.26-.53.51-.81.75-.23.2-.45.39-.69.57-.22.17-.44.33-.66.47-.03.04-.05.06-.08.06h-.01c-.19.13-.38.26-.57.37-.12.09-.24.16-.36.22-.12.07-.24.13-.36.2-2.46,1.44-5.31,2.23-8.33,2.23-4.11,0-7.88-1.48-10.81-3.91Z"/>
      <path class="cls-1" d="m591.68,181.26c-.11,13.68-4.81,26.92-13.48,39.41-.13.19-.26.39-.4.58v.03c-1.32,1.88-2.75,3.77-4.27,5.63-.55.67-1.11,1.33-1.68,1.99,0,0,0,.04-.04.07-2.02,2.34-4.21,4.69-6.51,6.99h-.01c-.24.26-.47.49-.72.73-12.24,11.96-28.26,23.03-47.39,32.8-.11.06-.22.11-.33.17v.03c-14.17,7.22-30.06,13.76-47.34,19.49-.14.07-.24.1-.37.13-31.29,10.32-67.14,17.94-105.93,22.05-1.72.2-3.45.37-5.24.54-17.42,1.69-35.41,2.73-53.84,2.97-9.82.1-19.52,0-29.1-.3h-.05c-8.49-.27-16.88-.71-25.13-1.32.12-.07.25-.14.37-.22.12-.06.24-.13.36-.22.19-.1.38-.22.57-.37h.01s.05-.03.08-.06c.22-.14.44-.3.66-.47.24-.18.46-.37.69-.57.28-.24.55-.49.81-.75.05-.05.1-.1.15-.16.05-.05.11-.11.16-.18l.02-.02c.35-.37.69-.75,1.02-1.16.16-.2.32-.41.47-.62.28-.38.54-.77.78-1.18.12-.18.23-.37.32-.56.13-.22.25-.45.36-.68.12-.23.23-.47.33-.71.03-.05.05-.1.07-.15.11-.25.21-.51.3-.77.1-.26.19-.52.27-.79.04-.11.07-.22.1-.34.04-.11.07-.23.09-.34.07-.23.13-.46.17-.69.05-.2.09-.4.12-.6.06-.29.11-.59.14-.88.03-.21.06-.41.07-.62.02-.22.04-.43.05-.65.01-.28.02-.56.02-.84,0-.31-.01-.61-.02-.92-.01-.23-.03-.46-.05-.69-.07-.68-.18-1.35-.34-1.99v-.02s-.02-.08-.03-.12c.03-.03,0-.07,0-.07-.21-.87-.44-1.72-.78-2.53h.04c.16.01.34.04.5.04h.03c6.69.57,13.44,1.01,20.33,1.31h.05c4.44.24,8.93.41,13.48.51,34.02.91,66.79-1.01,97.06-5.29.57-.07,1.12-.17,1.66-.24,36.01-5.19,68.62-13.72,95.98-24.88.84-.34,1.75-.67,2.57-1.08,10.48-4.38,20.15-9.13,28.91-14.23.11-.06.22-.13.33-.19,28.43-16.55,47.34-36.71,53.21-59,.1-.36.19-.73.27-1.1l.92-7.61v-.08s.77-6.27.77-6.27v-.03c-.02-2.82-.25-5.64-.68-8.41v-.1c-3-19.7-16.1-38.4-36.98-54.92-.74-.59-1.49-1.17-2.25-1.75-.26-.38-.53-.76-.8-1.14-.36-.51-.72-1.01-1.08-1.51-.06-.09-.13-.18-.2-.27h0c-.87-1.21-1.75-2.39-2.65-3.59-.92-1.18-1.79-2.36-2.74-3.51-.64-.81-1.29-1.61-1.93-2.42.4.21.8.43,1.19.65h0c.36.19.69.38,1.04.56h.01s0,.01,0,.01c2.65,1.46,5.23,2.94,7.74,4.45,6.13,3.68,11.84,7.52,17.09,11.52.03,0,.03.03.07.07,2.75,2.09,5.38,4.21,7.88,6.38l.02.02h0c10.16,8.8,18.14,18.17,23.68,28.04h0s0,.02,0,.02c4.25,7.58,7.05,15.44,8.27,23.52,0,.1.03.24.03.37.34,2.3.55,4.59.61,6.91.02.73.03,1.46.02,2.19Z"/>
      <ellipse class="cls-1" cx="494.56" cy="81.87" rx="2.72" ry="2"/>
      <polygon class="cls-1" points="514.24 83.57 533.86 107.99 517.18 106.15 489.91 87.14 490.96 80.19 514.24 83.57"/>
    </g>
  </g>
</svg>