<?xml version="1.0" encoding="UTF-8"?>
<!DOCTYPE svg PUBLIC "-//W3C//DTD SVG 1.1//EN" "http://www.w3.org/Graphics/SVG/1.1/DTD/svg11.dtd">
<svg xmlns="http://www.w3.org/2000/svg" version="1.1" width="512px" height="512px" style="shape-rendering:geometricPrecision; text-rendering:geometricPrecision; image-rendering:optimizeQuality; fill-rule:evenodd; clip-rule:evenodd" xmlns:xlink="http://www.w3.org/1999/xlink">
<g><path style="opacity:0.942" fill="#000000" d="M 511.5,263.5 C 511.5,296.5 511.5,329.5 511.5,362.5C 509.99,363.836 508.323,365.003 506.5,366C 496.839,366.5 487.172,366.666 477.5,366.5C 476.194,393.311 462.527,410.145 436.5,417C 404.602,420.082 384.436,406.249 376,375.5C 375.502,372.518 375.335,369.518 375.5,366.5C 315.5,366.5 255.5,366.5 195.5,366.5C 194.174,393.329 180.507,410.162 154.5,417C 123.024,420.164 102.857,406.664 94,376.5C 93.5017,373.183 93.335,369.85 93.5,366.5C 77.4965,366.667 61.4965,366.5 45.5,366C 40.0896,364.257 36.2563,360.757 34,355.5C 33.5003,347.841 33.3336,340.174 33.5,332.5C 23.8276,332.666 14.1609,332.5 4.5,332C 2.67694,331.003 1.01027,329.836 -0.5,328.5C -0.5,325.5 -0.5,322.5 -0.5,319.5C 1.01027,318.164 2.67694,316.997 4.5,316C 32.1667,315.333 59.8333,315.333 87.5,316C 91.2377,317.399 92.9044,320.066 92.5,324C 92.9044,327.934 91.2377,330.601 87.5,332C 75.1712,332.5 62.8378,332.667 50.5,332.5C 50.5,338.167 50.5,343.833 50.5,349.5C 65.8333,349.5 81.1667,349.5 96.5,349.5C 104.965,327.724 120.965,316.39 144.5,315.5C 167.373,316.596 183.373,327.596 192.5,348.5C 247.829,349.5 303.163,349.833 358.5,349.5C 358.333,328.164 358.5,306.831 359,285.5C 362.771,281.212 367.271,280.379 372.5,283C 373.46,284.419 374.293,285.919 375,287.5C 375.5,308.164 375.667,328.831 375.5,349.5C 376.675,349.719 377.675,349.386 378.5,348.5C 390.493,322.204 410.827,311.704 439.5,317C 456.378,321.712 468.045,332.212 474.5,348.5C 481.134,349.497 487.8,349.83 494.5,349.5C 494.5,338.167 494.5,326.833 494.5,315.5C 476.804,317.754 465.638,310.421 461,293.5C 460.333,285.833 460.333,278.167 461,270.5C 461.273,268.671 462.107,267.171 463.5,266C 473.401,264.716 483.401,264.049 493.5,264C 489.369,254.204 482.036,248.537 471.5,247C 439.502,246.5 407.502,246.333 375.5,246.5C 375.665,250.182 375.499,253.848 375,257.5C 374.727,259.329 373.893,260.829 372.5,262C 369.298,263.483 365.964,263.817 362.5,263C 360.667,262.5 359.5,261.333 359,259.5C 358.5,209.834 358.333,160.168 358.5,110.5C 255.833,110.5 153.167,110.5 50.5,110.5C 50.6667,159.501 50.5,208.501 50,257.5C 48.8771,261.819 46.0438,263.819 41.5,263.5C 38.2089,263.721 35.7089,262.387 34,259.5C 33.3333,207.833 33.3333,156.167 34,104.5C 36.1667,99.6667 39.6667,96.1667 44.5,94C 150.833,93.3333 257.167,93.3333 363.5,94C 368.573,95.4056 372.073,98.5723 374,103.5C 375.363,111.429 375.863,119.429 375.5,127.5C 397.836,127.333 420.169,127.5 442.5,128C 458.002,131.836 466.836,141.669 469,157.5C 469.667,162.5 469.667,167.5 469,172.5C 467.327,175.001 465.493,177.334 463.5,179.5C 467.667,196.167 471.833,212.833 476,229.5C 494.614,233.951 506.447,245.284 511.5,263.5 Z M 375.5,144.5 C 396.836,144.333 418.169,144.5 439.5,145C 446.887,147.558 451.221,152.724 452.5,160.5C 426.842,161.5 401.175,161.833 375.5,161.5C 375.5,155.833 375.5,150.167 375.5,144.5 Z M 375.5,178.5 C 398.843,178.167 422.176,178.5 445.5,179.5C 449.761,196.044 454.094,212.544 458.5,229C 430.835,229.5 403.169,229.667 375.5,229.5C 375.5,212.5 375.5,195.5 375.5,178.5 Z M 477.5,281.5 C 483.167,281.5 488.833,281.5 494.5,281.5C 494.5,287.167 494.5,292.833 494.5,298.5C 481.167,300.5 475.5,294.833 477.5,281.5 Z M 138.5,332.5 C 159.127,331.391 172.294,340.724 178,360.5C 178.505,388.661 164.671,401.828 136.5,400C 117.242,393.324 108.742,379.824 111,359.5C 114.783,344.883 123.949,335.883 138.5,332.5 Z M 420.5,332.5 C 440.568,331.448 453.735,340.448 460,359.5C 461.136,387.697 447.636,401.197 419.5,400C 399.537,393.931 390.703,380.431 393,359.5C 397.454,345.545 406.621,336.545 420.5,332.5 Z"/></g>
<g><path style="opacity:0.907" fill="#000000" d="M 268.5,170.5 C 279.574,169.674 283.074,174.341 279,184.5C 252.805,211.028 226.305,237.195 199.5,263C 196.036,263.817 192.702,263.483 189.5,262C 174.304,247.138 159.471,231.971 145,216.5C 143.926,205.947 148.426,202.447 158.5,206C 170.681,218.348 183.014,230.514 195.5,242.5C 219.881,218.452 244.214,194.452 268.5,170.5 Z"/></g>
<g><path style="opacity:0.932" fill="#000000" d="M 20.5,281.5 C 57.5015,281.333 94.5015,281.5 131.5,282C 135.788,285.771 136.621,290.271 134,295.5C 132.581,296.46 131.081,297.293 129.5,298C 93.8333,298.667 58.1667,298.667 22.5,298C 18.1809,296.877 16.1809,294.044 16.5,289.5C 16.6667,288.167 16.8333,286.833 17,285.5C 18.3756,284.295 19.5423,282.962 20.5,281.5 Z"/></g>
<g><path style="opacity:0.934" fill="#000000" d="M 209.5,315.5 C 251.501,315.333 293.501,315.5 335.5,316C 339.238,317.399 340.904,320.066 340.5,324C 340.904,327.934 339.238,330.601 335.5,332C 293.5,332.667 251.5,332.667 209.5,332C 204.391,328.634 203.224,324.134 206,318.5C 207.145,317.364 208.312,316.364 209.5,315.5 Z"/></g>
<g><path style="opacity:0.93" fill="#000000" d="M 140.5,349.5 C 150.823,348.408 157.656,352.741 161,362.5C 161.957,377.876 154.791,384.71 139.5,383C 128.457,378.233 124.957,370.066 129,358.5C 131.683,353.922 135.517,350.922 140.5,349.5 Z"/></g>
<g><path style="opacity:0.93" fill="#000000" d="M 422.5,349.5 C 439.55,349.598 446.05,357.931 442,374.5C 436.254,383.192 428.421,385.692 418.5,382C 408.131,374.028 406.798,364.695 414.5,354C 417.099,352.205 419.766,350.705 422.5,349.5 Z"/></g>
</svg>
