<?xml version="1.0" encoding="UTF-8"?>
<svg id="Capa_1" data-name="Capa 1" xmlns="http://www.w3.org/2000/svg" viewBox="0 0 512 390">
  <defs>
    <style>
      .cls-1 {
        opacity: .94;
      }

      .cls-1, .cls-2, .cls-3, .cls-4, .cls-5 {
        fill-rule: evenodd;
        isolation: isolate;
      }

      .cls-2 {
        opacity: .94;
      }

      .cls-3 {
        opacity: .91;
      }

      .cls-4 {
        opacity: .95;
      }

      .cls-5 {
        opacity: .9;
      }
    </style>
  </defs>
  <path class="cls-1" d="m392.5,137c-2.33-3.92-5.83-5.92-10.5-6-3.46.93-6.29,2.93-8.5,6-2,12.33-2,24.67,0,37,.46,1.43,1.3,2.6,2.5,3.5,6.69,4.06,12.19,2.9,16.5-3.5,1.1-6.09,1.6-12.26,1.5-18.5.1-6.24-.4-12.41-1.5-18.5Zm-62.5-6c-3.82,1.01-6.65,3.34-8.5,7-.67,11.67-.67,23.33,0,35,1.12,2.12,2.62,3.96,4.5,5.5,6.85,2.72,12.02.88,15.5-5.5.67-11.67.67-23.33,0-35-2.19-5.01-6.02-7.34-11.5-7Zm62.5,6c-2.33-3.92-5.83-5.92-10.5-6-3.46.93-6.29,2.93-8.5,6-2,12.33-2,24.67,0,37,.46,1.43,1.3,2.6,2.5,3.5,6.69,4.06,12.19,2.9,16.5-3.5,1.1-6.09,1.6-12.26,1.5-18.5.1-6.24-.4-12.41-1.5-18.5Zm-62.5-6c-3.82,1.01-6.65,3.34-8.5,7-.67,11.67-.67,23.33,0,35,1.12,2.12,2.62,3.96,4.5,5.5,6.85,2.72,12.02.88,15.5-5.5.67-11.67.67-23.33,0-35-2.19-5.01-6.02-7.34-11.5-7ZM475,.5C396.33-.17,317.67-.17,239,.5c-20.88,2.34-33.04,13.84-36.5,34.5-.67,80.33-.67,160.67,0,241,2.83,20.17,14.33,31.67,34.5,34.5,80,.67,160,.67,240,0,17.97-2.48,29.64-12.31,35-29.5V30c-5.62-18.11-17.95-27.94-37-29.5Zm15.5,275.5c-1.43,6.42-5.26,10.59-11.5,12.5-81,.67-162,.67-243,0-5.41-1.74-9.24-5.24-11.5-10.5-.67-81.33-.67-162.67,0-244,2.02-5.85,5.85-9.85,11.5-12,80.67-.17,161.33,0,242,.5,6.83,1.5,11,5.67,12.5,12.5.67,80.33.67,160.67,0,241Zm-108.5-145c-3.46.93-6.29,2.93-8.5,6-2,12.33-2,24.67,0,37,.46,1.43,1.3,2.6,2.5,3.5,6.69,4.06,12.19,2.9,16.5-3.5,1.1-6.09,1.6-12.26,1.5-18.5.1-6.24-.4-12.41-1.5-18.5-2.33-3.92-5.83-5.92-10.5-6Zm-52,0c-3.82,1.01-6.65,3.34-8.5,7-.67,11.67-.67,23.33,0,35,1.12,2.12,2.62,3.96,4.5,5.5,6.85,2.72,12.02.88,15.5-5.5.67-11.67.67-23.33,0-35-2.19-5.01-6.02-7.34-11.5-7Z"/>
  <path class="cls-2" d="m0,190v-88c3.36-10.19,10.36-16.36,21-18.5,7.99-.5,15.99-.67,24-.5-.17-19.34,0-38.67.5-58,1.16-6.08,4.83-9.42,11-10,5.67,1,9,4.33,10,10,.5,19.33.67,38.66.5,58h43c-.17-19.34,0-38.67.5-58,1.16-6.08,4.83-9.42,11-10,5.67,1,9,4.33,10,10,.5,19.33.67,38.66.5,58,8.01-.17,16.01,0,24,.5,12.74,2.74,19.91,10.57,21.5,23.5.9,28.02.57,56.02-1,84-5.59,29.67-22.09,50.84-49.5,63.5-8.36,3.42-17.03,5.59-26,6.5-.34,15.7.16,31.37,1.5,47,8.18,33.18,29.01,53.01,62.5,59.5,92.33.33,184.67.67,277,1,6.43,1.7,9.27,5.87,8.5,12.5-1.18,5.01-4.35,7.85-9.5,8.5-89.33.67-178.67.67-268,0-40.96-2.38-69.79-22.22-86.5-59.5-2.94-7.76-4.94-15.76-6-24-.5-15-.67-30-.5-45-43.63-4.64-70.3-28.3-80-71Zm23-85c43.67-.17,87.33,0,131,.5l1.5,1.5c.67,26.33.67,52.67,0,79-6.07,30.74-24.57,48.58-55.5,53.5-34.2,4.65-59.04-8.18-74.5-38.5-1.96-5.18-3.29-10.51-4-16-.67-26-.67-52,0-78,.72-.54,1.22-1.21,1.5-2Z"/>
  <path class="cls-4" d="m347,54c54.67-1.46,90.84,23.54,108.5,75,10.05,49.72-6.12,88.22-48.5,115.5-40.11,19.53-78.11,16.19-114-10-32.38-28.64-43.54-64.15-33.5-106.5,14.13-42.64,43.29-67.3,87.5-74Zm8,21c-42.74,4.4-68.41,27.73-77,70,8.18-.76,12.52,2.91,13,11-1.09,7.39-5.42,10.73-13,10,.91,7.22,2.74,14.22,5.5,21,20.54,39.52,52.71,54.68,96.5,45.5,31.22-11.06,50.22-32.89,57-65.5-7.86-.03-12.53-3.87-14-11.5,1.55-7.46,6.21-11.12,14-11-10.02-43.51-37.35-66.68-82-69.5Z"/>
  <path class="cls-1" d="m341.5,173c-3.48,6.38-8.65,8.22-15.5,5.5-1.88-1.54-3.38-3.38-4.5-5.5-.67-11.67-.67-23.33,0-35,1.85-3.66,4.68-5.99,8.5-7,5.48-.34,9.31,1.99,11.5,7,.67,11.67.67,23.33,0,35Z"/>
  <path class="cls-3" d="m394,155.5c.1,6.24-.4,12.41-1.5,18.5-4.31,6.4-9.81,7.56-16.5,3.5-1.2-.9-2.04-2.07-2.5-3.5-2-12.33-2-24.67,0-37,2.21-3.07,5.04-5.07,8.5-6,4.67.08,8.17,2.08,10.5,6,1.1,6.09,1.6,12.26,1.5,18.5Z"/>
  <path class="cls-5" d="m487,368c6.09-.36,12.09.14,18,1.5,4.77,3.65,6.27,8.49,4.5,14.5-2.08,3.09-4.91,4.92-8.5,5.5-6.54,1.01-12.87.34-19-2-6.36-8.7-4.7-15.2,5-19.5Z"/>
</svg>