<?xml version="1.0" encoding="UTF-8"?>
<!DOCTYPE svg PUBLIC "-//W3C//DTD SVG 1.1//EN" "http://www.w3.org/Graphics/SVG/1.1/DTD/svg11.dtd">
<svg xmlns="http://www.w3.org/2000/svg" version="1.1" width="512px" height="512px" style="shape-rendering:geometricPrecision; text-rendering:geometricPrecision; image-rendering:optimizeQuality; fill-rule:evenodd; clip-rule:evenodd" xmlns:xlink="http://www.w3.org/1999/xlink">
<g><path style="opacity:0.947" fill="#000000" d="M 212.5,-0.5 C 215.5,-0.5 218.5,-0.5 221.5,-0.5C 243.633,20.7233 261.133,45.39 274,73.5C 294.124,117.878 307.791,164.211 315,212.5C 318.122,233.763 320.622,255.097 322.5,276.5C 334.577,261.02 344.077,244.02 351,225.5C 361.327,196.526 368.993,166.86 374,136.5C 379.671,130.333 385.671,130 392,135.5C 411.395,182.745 424.061,231.745 430,282.5C 434.804,323.53 430.471,363.53 417,402.5C 389.876,465.99 342.043,502.324 273.5,511.5C 260.833,511.5 248.167,511.5 235.5,511.5C 177.108,502.227 132.275,472.56 101,422.5C 75.3712,373.053 72.7046,322.387 93,270.5C 101.069,253.352 110.402,237.019 121,221.5C 126.333,217.5 131.667,217.5 137,221.5C 140.333,226.5 140.333,231.5 137,236.5C 116.996,262.853 104.996,292.52 101,325.5C 98.4058,391.165 125.573,439.999 182.5,472C 192.16,477.175 202.16,481.175 212.5,484C 193.107,458.633 191.607,432.133 208,404.5C 217.127,391.36 225.461,377.694 233,363.5C 239.536,347.225 244.869,330.558 249,313.5C 253.34,307.136 258.84,305.969 265.5,310C 278.664,323.143 288.164,338.643 294,356.5C 297.978,369.407 301.311,382.407 304,395.5C 308.461,383.639 312.295,371.639 315.5,359.5C 321.856,355.077 327.689,355.743 333,361.5C 345.037,388.674 349.703,417.007 347,446.5C 346.069,451.391 344.902,456.224 343.5,461C 343.833,461.5 344.167,462 344.5,462.5C 369.647,444.841 387.48,421.508 398,392.5C 408.479,361.671 412.479,330.004 410,297.5C 407.107,258.365 399.107,220.365 386,183.5C 378.457,218.149 365.457,250.483 347,280.5C 339.833,290.333 331.333,298.833 321.5,306C 312.623,311.949 306.123,310.116 302,300.5C 300.472,238.53 289.806,178.197 270,119.5C 259.502,88.4941 244.335,60.1608 224.5,34.5C 216.713,78.3592 203.213,120.359 184,160.5C 178.064,164.729 172.397,164.396 167,159.5C 165.496,155.961 165.163,152.295 166,148.5C 187.482,102.381 201.482,54.0476 208,3.5C 209.397,1.92975 210.897,0.596413 212.5,-0.5 Z M 262.5,342.5 C 265.602,344.656 267.768,347.656 269,351.5C 275.511,366.208 279.844,381.542 282,397.5C 283.036,408.582 284.37,419.582 286,430.5C 292.24,437.001 298.74,437.167 305.5,431C 313.655,423.177 319.822,414.01 324,403.5C 329.201,421.744 328.534,439.744 322,457.5C 313.159,475.656 298.659,486.156 278.5,489C 256.359,490.844 238.526,483.01 225,465.5C 218.015,453.1 216.682,440.1 221,426.5C 231.333,408.833 241.667,391.167 252,373.5C 256.206,363.381 259.706,353.047 262.5,342.5 Z"/></g>
<g><path style="opacity:0.889" fill="#000000" d="M 151.5,181.5 C 163.517,182.534 167.017,188.534 162,199.5C 154.468,204.431 148.468,203.098 144,195.5C 142.595,188.639 145.095,183.973 151.5,181.5 Z"/></g>
</svg>
