<?xml version="1.0" encoding="UTF-8"?>
<!DOCTYPE svg PUBLIC "-//W3C//DTD SVG 1.1//EN" "http://www.w3.org/Graphics/SVG/1.1/DTD/svg11.dtd">
<svg xmlns="http://www.w3.org/2000/svg" version="1.1" width="512px" height="512px" style="shape-rendering:geometricPrecision; text-rendering:geometricPrecision; image-rendering:optimizeQuality; fill-rule:evenodd; clip-rule:evenodd" xmlns:xlink="http://www.w3.org/1999/xlink">
<g><path style="opacity:0.933" fill="#000000" d="M 511.5,427.5 C 511.5,434.5 511.5,441.5 511.5,448.5C 501.791,478.537 481.124,491.703 449.5,488C 441.899,486.365 434.899,483.365 428.5,479C 406.333,456.833 384.167,434.667 362,412.5C 360.732,402.431 364.898,398.931 374.5,402C 395.5,423 416.5,444 437.5,465C 456.536,477.232 473.703,475.066 489,458.5C 498.171,443.397 497.504,428.73 487,414.5C 419.667,347.167 352.333,279.833 285,212.5C 268.319,229.014 251.819,245.681 235.5,262.5C 273.486,300.986 311.653,339.32 350,377.5C 353.99,384.513 352.157,389.18 344.5,391.5C 342.701,391.423 341.034,390.923 339.5,390C 300,350.5 260.5,311 221,271.5C 220.333,270.167 219.667,268.833 219,267.5C 218.637,263.134 218.637,258.801 219,254.5C 211.333,246.833 203.667,239.167 196,231.5C 191.833,235.667 187.667,239.833 183.5,244C 182,244.5 180.5,245 179,245.5C 159.273,234.521 144.94,239.521 136,260.5C 135.333,264.5 135.333,268.5 136,272.5C 138.287,275.78 140.12,279.28 141.5,283C 141,284.5 140.5,286 140,287.5C 125.833,301.667 111.667,315.833 97.5,330C 94.8333,330.667 92.1667,330.667 89.5,330C 59.632,299.965 29.632,270.132 -0.5,240.5C -0.5,237.833 -0.5,235.167 -0.5,232.5C 12.9376,218.562 26.6042,204.728 40.5,191C 42.3904,189.888 44.3904,189.054 46.5,188.5C 66.6746,199.179 81.1746,193.845 90,172.5C 90.6667,168.833 90.6667,165.167 90,161.5C 87.4852,158.158 85.6519,154.491 84.5,150.5C 85.0544,148.39 85.8877,146.39 87,144.5C 111.528,119.638 136.361,95.1383 161.5,71C 172.123,65.7085 181.957,66.8752 191,74.5C 201.23,63.6005 212.063,53.4339 223.5,44C 267.181,16.0617 311.848,14.395 357.5,39C 360.196,42.3442 360.696,45.8442 359,49.5C 345.251,57.2897 331.751,65.4564 318.5,74C 306.25,82.9123 294.583,92.579 283.5,103C 276.538,105.567 272.204,103.234 270.5,96C 271.227,94.6012 271.727,93.1012 272,91.5C 290.32,73.6723 310.487,58.339 332.5,45.5C 295.655,32.307 261.321,37.1403 229.5,60C 220.196,68.3027 211.196,76.9693 202.5,86C 215.667,99.1667 228.833,112.333 242,125.5C 244.713,121.908 247.547,118.408 250.5,115C 259.789,112.71 263.622,116.21 262,125.5C 259.485,129.344 256.985,133.177 254.5,137C 261.713,145.508 263.547,155.008 260,165.5C 258.146,168.613 256.48,171.613 255,174.5C 262.5,182 270,189.5 277.5,197C 283.351,195.805 289.017,196.472 294.5,199C 363.333,267.833 432.167,336.667 501,405.5C 505.885,412.266 509.385,419.6 511.5,427.5 Z M 173.5,83.5 C 175.512,84.2283 177.512,85.0617 179.5,86C 200.667,107.167 221.833,128.333 243,149.5C 245.846,152.919 246.18,156.586 244,160.5C 222.986,181.681 201.82,202.681 180.5,223.5C 155.5,199.167 130.833,174.5 106.5,149.5C 128.268,126.73 150.601,104.73 173.5,83.5 Z M 106.5,173.5 C 123.299,189.798 139.965,206.298 156.5,223C 137.89,227.777 125.557,239.277 119.5,257.5C 103.5,242.167 87.8333,226.5 72.5,210.5C 90.818,204.518 102.151,192.185 106.5,173.5 Z M 241.5,185.5 C 250.092,192.422 258.092,200.089 265.5,208.5C 254.181,220.319 242.681,231.986 231,243.5C 223.167,235.667 215.333,227.833 207.5,220C 219.035,208.632 230.369,197.132 241.5,185.5 Z M 46.5,208.5 C 71.632,233.132 96.632,257.965 121.5,283C 112.319,292.348 102.986,301.514 93.5,310.5C 68.5,286.167 43.8333,261.5 19.5,236.5C 28.5214,227.146 37.5214,217.813 46.5,208.5 Z"/></g>
</svg>
