<?xml version="1.0" encoding="UTF-8"?>
<!DOCTYPE svg PUBLIC "-//W3C//DTD SVG 1.1//EN" "http://www.w3.org/Graphics/SVG/1.1/DTD/svg11.dtd">
<svg xmlns="http://www.w3.org/2000/svg" version="1.1" width="512px" height="512px" style="shape-rendering:geometricPrecision; text-rendering:geometricPrecision; image-rendering:optimizeQuality; fill-rule:evenodd; clip-rule:evenodd" xmlns:xlink="http://www.w3.org/1999/xlink">
<g><path style="opacity:0.94" fill="#000000" d="M 511.5,205.5 C 511.5,209.5 511.5,213.5 511.5,217.5C 509.114,221.397 506.114,224.897 502.5,228C 492.167,233.167 481.833,238.333 471.5,243.5C 477.087,248.686 478.92,255.019 477,262.5C 469.271,285.03 460.771,307.197 451.5,329C 446.786,332.793 441.453,334.126 435.5,333C 430.011,331.17 424.511,329.337 419,327.5C 408.09,342.032 393.59,347.865 375.5,345C 327.842,328.225 280.342,311.059 233,293.5C 224.897,306.308 213.397,314.308 198.5,317.5C 190.235,339.795 182.068,362.128 174,384.5C 165.58,403.792 151.08,415.625 130.5,420C 102.835,420.5 75.1687,420.667 47.5,420.5C 47.6665,430.839 47.4998,441.172 47,451.5C 41.5501,465.314 31.3835,470.981 16.5,468.5C 12.1667,468.333 7.83333,468.167 3.5,468C 2.29493,466.624 0.961599,465.458 -0.5,464.5C -0.5,419.167 -0.5,373.833 -0.5,328.5C 3.77798,324.109 9.11131,322.442 15.5,323.5C 30.6881,321.668 41.1881,327.668 47,341.5C 47.4998,351.494 47.6665,361.494 47.5,371.5C 73.1688,371.667 98.8355,371.5 124.5,371C 125.333,370.167 126.167,369.333 127,368.5C 136.094,345.55 144.594,322.384 152.5,299C 148.709,292.642 145.875,285.809 144,278.5C 143.501,272.509 143.334,266.509 143.5,260.5C 101.524,246.23 59.8575,231.063 18.5,215C 7.97546,207.766 1.64212,197.932 -0.5,185.5C -0.5,181.5 -0.5,177.5 -0.5,173.5C 12.7464,135.273 26.913,97.2729 42,59.5C 52.4882,45.847 66.3215,40.347 83.5,43C 223.128,92.8759 362.462,143.543 501.5,195C 505.74,197.738 509.074,201.238 511.5,205.5 Z M 69.5,59.5 C 76.8092,58.8585 83.8092,60.0252 90.5,63C 222.5,111 354.5,159 486.5,207C 489.503,208.166 492.17,209.833 494.5,212C 490.159,215.172 485.492,217.839 480.5,220C 461.167,229 441.833,238 422.5,247C 402.365,254.605 382.365,254.271 362.5,246C 287.272,218.036 211.772,190.869 136,164.5C 128.788,166.107 126.454,170.441 129,177.5C 130.214,179.049 131.714,180.215 133.5,181C 214.234,210.8 295.234,239.8 376.5,268C 392.325,270.545 407.825,269.379 423,264.5C 420.969,272.93 418.302,281.263 415,289.5C 411.391,299.659 407.391,309.659 403,319.5C 395.268,328.392 385.768,330.892 374.5,327C 260.91,285.47 147.243,244.136 33.5,203C 20.9585,198.087 15.4585,188.92 17,175.5C 21.3446,162.297 26.178,149.297 31.5,136.5C 40.1365,147.652 51.4698,153.152 65.5,153C 70.8333,148 70.8333,143 65.5,138C 43.6553,132.144 36.8219,118.644 45,97.5C 48.4707,88.0876 52.1374,78.7543 56,69.5C 59.5795,64.7307 64.0795,61.3974 69.5,59.5 Z M 447.5,253.5 C 452.227,253.909 456.56,255.409 460.5,258C 453.338,277.483 446.172,296.983 439,316.5C 434.274,314.981 429.774,312.981 425.5,310.5C 432.086,291.053 439.419,272.053 447.5,253.5 Z M 160.5,267.5 C 179.061,273.783 197.394,280.616 215.5,288C 205.407,299.576 193.074,302.576 178.5,297C 166.262,291.032 160.262,281.198 160.5,267.5 Z M 166.5,310.5 C 171.186,312.511 175.852,314.511 180.5,316.5C 172.722,337.059 165.222,357.725 158,378.5C 152.135,391.358 142.302,399.525 128.5,403C 101.502,403.5 74.5021,403.667 47.5,403.5C 47.5,398.5 47.5,393.5 47.5,388.5C 74.1687,388.667 100.835,388.5 127.5,388C 135.502,385.997 141.002,381.164 144,373.5C 151.803,352.59 159.303,331.59 166.5,310.5 Z M 15.5,340.5 C 20.0803,340.113 24.4136,340.947 28.5,343C 29.717,344.648 30.5503,346.481 31,348.5C 31.6667,380.5 31.6667,412.5 31,444.5C 30.5943,447.494 29.0943,449.661 26.5,451C 22.8484,451.499 19.1817,451.665 15.5,451.5C 15.5,414.5 15.5,377.5 15.5,340.5 Z"/></g>
<g><path style="opacity:0.896" fill="#000000" d="M 90.5,147.5 C 97.6504,149.495 104.65,151.995 111.5,155C 114.803,158.795 115.303,162.962 113,167.5C 111.278,169.444 109.111,170.444 106.5,170.5C 99.3054,168.571 92.3054,166.071 85.5,163C 80.8971,155.643 82.5638,150.477 90.5,147.5 Z"/></g>
</svg>
